 <svg  version="1.0" xmlns="http://www.w3.org/2000/svg"  width="768.000000pt" height="672.000000pt" viewBox="0 0 768.000000 672.000000"  preserveAspectRatio="xMidYMid meet">  <g transform="translate(0.000000,672.000000) scale(0.100000,-0.100000)" fill="#ffffff" stroke="none"> <path d="M2780 5463 c-49 -17 -120 -68 -120 -86 0 -6 -8 -19 -17 -30 -16 -16 -18 -47 -21 -235 -2 -120 -7 -220 -10 -224 -4 -4 -45 -15 -92 -24 -137 -27 -247 -86 -333 -178 -93 -99 -147 -212 -155 -321 -2 -33 -9 -66 -14 -72 -8 -10 -60 -13 -197 -13 -148 0 -198 -4 -237 -17 -52 -17 -124 -67 -124 -86 0 -6 -7 -18 -16 -28 -11 -12 -16 -38 -16 -86 -1 -79 24 -137 75 -176 60 -45 92 -51 307 -57 l205 -5 3 -249 c1 -162 -1 -253 -8 -261 -8 -9 -68 -14 -223 -16 -204 -4 -213 -5 -252 -29 -49 -30 -55 -36 -84 -83 -18 -29 -23 -52 -23 -107 0 -55 5 -78 23 -107 29 -47 35 -53 84 -83 39 -24 48 -25 252 -29 155 -2 215 -7 223 -16 7 -8 9 -99 8 -261 l-3 -249 -205 -5 c-215 -6 -247 -12 -307 -57 -101 -77 -101 -259 0 -336 64 -48 115 -57 317 -57 131 0 190 -4 198 -12 7 -7 12 -32 12 -58 0 -70 37 -174 92 -255 93 -138 226 -225 398 -259 47 -9 88 -20 92 -24 3 -4 8 -104 10 -224 3 -188 5 -219 21 -235 9 -11 17 -24 17 -30 0 -20 73 -70 128 -87 49 -17 55 -17 105 0 54 17 127 67 127 87 0 6 8 19 17 30 15 16 18 49 23 240 l5 222 262 3 262 2 3 -207 3 -208 30 -60 c27 -53 37 -63 90 -89 76 -38 124 -38 200 0 53 26 63 36 90 89 l30 60 3 208 3 207 262 -2 262 -3 5 -222 c5 -191 8 -224 23 -240 9 -11 17 -24 17 -30 0 -20 73 -70 128 -87 49 -17 55 -17 105 0 54 17 127 67 127 87 0 6 8 19 17 30 16 16 18 47 21 235 2 120 7 220 10 224 4 4 45 15 92 24 137 27 247 86 333 178 93 99 147 212 155 321 2 33 9 66 14 73 8 9 60 12 197 12 148 0 198 4 237 17 52 17 124 67 124 86 0 6 7 18 16 28 23 25 23 163 0 188 -9 10 -16 22 -16 28 0 16 -68 67 -110 84 -23 9 -102 15 -240 19 l-205 5 -3 249 c-1 162 1 253 8 261 8 9 68 14 223 16 204 4 213 5 252 29 49 30 55 36 84 83 33 53 33 161 0 214 -29 47 -35 53 -84 83 -39 24 -48 25 -252 29 -155 2 -215 7 -223 16 -7 8 -9 99 -8 261 l3 249 205 5 c138 4 217 10 240 19 42 17 110 68 110 84 0 6 7 18 16 28 23 25 23 163 0 188 -9 10 -16 22 -16 28 0 19 -72 69 -124 86 -39 13 -89 17 -237 17 -137 0 -189 3 -197 13 -5 6 -12 39 -14 72 -8 109 -62 222 -155 321 -86 92 -196 151 -333 178 -47 9 -88 20 -92 24 -3 4 -8 104 -10 224 -3 188 -5 219 -21 235 -9 11 -17 24 -17 30 0 20 -73 70 -127 87 -50 17 -56 17 -105 0 -55 -17 -128 -67 -128 -87 0 -6 -8 -19 -17 -30 -15 -16 -18 -49 -23 -240 l-5 -222 -262 -3 -262 -2 -3 207 -3 208 -30 60 c-27 53 -37 63 -90 89 -36 18 -75 29 -100 29 -25 0 -64 -11 -100 -29 -53 -26 -63 -36 -90 -89 l-30 -60 -3 -208 -3 -207 -262 2 -262 3 -5 222 c-5 191 -8 224 -23 240 -9 11 -17 24 -17 30 0 19 -72 69 -124 86 -58 20 -58 20 -116 0z m648 -1647 c46 -24 72 -60 114 -156 9 -19 29 -65 47 -102 17 -37 31 -70 31 -73 0 -3 14 -35 31 -72 16 -38 36 -81 43 -98 7 -16 21 -48 30 -70 10 -22 24 -53 31 -70 7 -16 24 -55 38 -85 13 -30 44 -100 67 -154 23 -54 45 -106 49 -115 5 -9 15 -33 24 -54 9 -20 23 -52 30 -70 8 -17 28 -62 46 -99 51 -111 38 -200 -36 -249 -44 -29 -118 -25 -168 9 -40 28 -87 104 -100 163 -4 16 -11 31 -16 34 -5 4 -9 15 -9 25 0 10 -7 26 -16 34 -13 14 -55 16 -299 16 -244 0 -286 -2 -299 -16 -9 -8 -16 -21 -16 -29 0 -7 -6 -26 -14 -42 -20 -38 -46 -100 -46 -107 0 -16 -47 -68 -78 -86 -36 -22 -111 -27 -143 -9 -11 5 -33 28 -49 51 -41 57 -41 115 1 206 18 37 38 82 46 99 7 18 21 50 30 70 9 21 19 45 24 54 4 9 26 61 49 115 23 54 54 124 67 154 14 30 31 69 38 85 37 86 58 135 104 238 17 37 31 69 31 72 0 3 14 36 31 73 18 37 38 83 47 102 26 60 44 94 61 114 45 53 123 71 179 42z m1215 -6 c20 -12 43 -38 54 -58 17 -35 18 -78 21 -652 3 -631 1 -671 -36 -715 -69 -83 -202 -70 -249 23 -17 35 -18 75 -18 672 0 597 1 637 18 672 37 73 137 101 210 58z"/> <path d="M3350 3266 c0 -8 -6 -27 -14 -43 -15 -29 -40 -84 -62 -138 -7 -16 -20 -46 -28 -66 -9 -20 -17 -47 -18 -60 l-3 -24 140 -3 c76 -1 145 0 152 2 10 4 5 21 -18 68 -17 35 -37 77 -44 93 -7 17 -26 60 -44 97 -17 37 -31 72 -31 78 0 5 -7 10 -15 10 -8 0 -15 -6 -15 -14z"/> </g> </svg>