<svg
  version="1.0"
  xmlns="http://www.w3.org/2000/svg"
  transform="scale(0.9)"
  width="197.000000pt"
  height="216.000000pt"
  viewBox="0 0 197.000000 216.000000"
  preserveAspectRatio="xMidYMid meet"
>
  <g transform="translate(0.000000,216.000000) scale(0.050000,-0.050000)" fill="#B0B6C3" stroke="none">
    <path
      d="M1275 3619 c-196 -48 -382 -203 -472 -395 l-53 -114 -6 -620 c-8 -751 20 -929 167 -1051 23 -19 29 -90 29 -357 0 -644 -3 -642 1000 -642 980 0 1000 11 1000 557 l0 247 256 263 c322 329 334 356 334 723 0 342 -107 531 -328 580 -54 11 -57 18 -68 161 -20 271 -171 493 -410 606 l-114 53 -630 4 c-346 2 -664 -5 -705 -15z m1335 -212 c189 -64 330 -269 330 -478 l0 -84 -129 -10 c-210 -17 -403 -164 -441 -336 l-13 -59 -384 0 c-520 1 -631 58 -633 325 0 103 -75 156 -150 107 -102 -67 -46 -337 99 -483 132 -131 211 -149 673 -149 l395 0 13 -59 c46 -211 420 -428 536 -312 65 65 21 171 -72 171 -217 3 -355 243 -253 442 57 112 161 157 365 158 301 0 393 -101 394 -436 0 -252 -19 -289 -300 -573 -292 -296 -300 -313 -300 -641 0 -241 -2 -254 -49 -301 l-49 -49 -702 0 -702 0 -49 49 c-48 49 -49 53 -49 419 l0 371 -57 65 c-134 154 -132 145 -139 833 -8 798 32 928 318 1029 134 47 1209 48 1348 1z"
    ></path>
    <path
      d="M1571 1501 c-58 -63 23 -180 173 -249 21 -10 21 -14 0 -24 -150 -69 -231 -186 -173 -249 51 -57 84 -49 234 51 l135 91 135 -91 c150 -100 183 -108 234 -51 58 63 -23 180 -173 249 -21 10 -21 14 0 24 150 69 231 186 173 249 -51 57 -84 49 -234 -51 l-135 -91 -135 91 c-150 100 -183 108 -234 51z"
    ></path>
  </g>
</svg>
