 <svg  version="1.0" xmlns="http://www.w3.org/2000/svg"  width="537.000000pt" height="507.000000pt" viewBox="0 0 537.000000 507.000000"  preserveAspectRatio="xMidYMid meet">  <g transform="translate(0.000000,507.000000) scale(0.100000,-0.100000)" fill="#ffffff" stroke="none"> <path d="M2485 4160 c-38 -4 -83 -12 -98 -19 -16 -6 -37 -11 -49 -11 -55 0 -273 -134 -364 -225 -28 -28 -103 -125 -131 -170 -50 -80 -106 -236 -118 -328 -6 -46 -9 -49 -52 -68 -24 -10 -50 -19 -58 -19 -21 0 -127 -50 -185 -87 -30 -20 -88 -69 -127 -109 -127 -130 -198 -312 -198 -504 0 -174 41 -291 158 -448 72 -97 186 -180 297 -216 30 -10 69 -24 85 -31 17 -8 46 -16 67 -19 20 -4 39 -14 42 -22 8 -21 8 -318 0 -338 -5 -13 -25 -16 -114 -16 l-107 0 -30 47 c-44 71 -100 106 -179 111 -93 6 -145 -11 -201 -68 -70 -70 -91 -166 -58 -261 16 -45 105 -139 131 -139 7 0 29 -8 48 -17 33 -15 39 -15 98 2 79 24 139 66 167 116 12 21 30 39 39 39 307 4 309 4 336 29 l26 24 0 227 c0 162 3 229 12 238 13 13 431 18 462 6 14 -5 16 -39 16 -270 l0 -264 -23 -9 c-78 -30 -137 -127 -137 -225 0 -117 65 -202 182 -235 55 -16 70 -17 104 -6 21 7 51 15 65 19 30 7 92 66 117 111 23 43 22 178 -2 225 -22 42 -78 97 -111 110 l-25 10 0 264 c0 231 2 265 16 270 9 3 114 6 234 6 179 0 220 -3 227 -14 4 -8 7 -129 5 -270 l-3 -255 -40 -23 c-23 -13 -55 -45 -76 -76 -33 -51 -36 -60 -36 -131 0 -92 21 -141 83 -194 86 -73 231 -72 322 3 54 45 78 102 78 189 0 52 -5 83 -20 110 -20 40 -75 101 -91 101 -5 0 -18 9 -29 20 -19 19 -20 33 -20 269 0 199 3 251 14 260 9 8 82 11 242 9 l229 -3 5 -237 c6 -305 -11 -281 212 -285 l163 -3 19 -27 c57 -82 156 -143 228 -143 46 0 154 57 186 98 31 39 62 117 62 156 0 94 -88 213 -173 235 -100 25 -188 6 -249 -55 -22 -21 -46 -51 -54 -67 -14 -26 -16 -27 -107 -27 -59 0 -97 4 -105 12 -8 8 -12 61 -12 174 0 177 5 194 57 194 14 0 37 6 51 14 15 7 52 21 82 31 187 59 371 257 432 465 25 87 27 301 3 392 -33 124 -121 271 -210 349 -73 65 -179 126 -277 159 -106 36 -94 23 -145 153 -25 64 -86 140 -152 191 -33 25 -65 46 -71 46 -7 0 -24 6 -38 14 -36 19 -160 46 -209 46 -36 0 -43 5 -73 46 -18 26 -58 72 -89 103 -58 59 -188 151 -213 151 -8 0 -19 5 -26 12 -26 26 -165 66 -267 78 -92 10 -151 10 -250 0z"/> </g> </svg>