 <svg  version="1.0" xmlns="http://www.w3.org/2000/svg" transform="scale(1.1)"  width="486.000000pt" height="342.000000pt" viewBox="0 0 486.000000 342.000000"  preserveAspectRatio="xMidYMid meet">  <g transform="translate(0.000000,342.000000) scale(0.100000,-0.100000)" fill="#ffffff" stroke="none"> <path d="M1410 2646 c-19 -8 -64 -21 -100 -31 -36 -9 -76 -23 -90 -30 -85 -43 -144 -79 -176 -109 l-38 -35 17 -89 c9 -49 17 -98 17 -110 0 -13 13 -28 35 -42 31 -19 45 -21 162 -18 110 3 138 8 197 31 55 22 85 27 152 27 49 0 97 -6 116 -14 18 -8 53 -22 78 -32 25 -10 62 -31 83 -47 20 -16 43 -27 51 -24 13 5 26 71 26 136 0 82 69 130 187 131 39 0 74 3 76 8 11 16 -69 86 -153 135 -77 44 -123 64 -185 82 -33 9 -83 23 -111 31 -66 18 -295 18 -344 0z"/> <path d="M3325 2643 c-27 -8 -77 -23 -111 -33 -70 -22 -215 -95 -227 -116 -4 -8 -14 -14 -21 -14 -22 0 -162 -137 -151 -148 6 -5 48 -14 94 -21 133 -20 171 -62 171 -189 0 -39 4 -73 9 -76 7 -5 69 43 123 96 23 23 81 52 153 77 102 36 247 25 337 -24 19 -11 62 -15 167 -15 l141 0 28 39 c34 47 64 210 42 235 -36 44 -201 135 -285 158 -33 9 -80 22 -105 28 -71 20 -305 22 -365 3z"/> <path d="M913 2362 c-29 -23 -102 -134 -140 -212 -108 -222 -109 -500 -3 -725 31 -67 85 -151 131 -203 l31 -35 116 6 c131 5 189 23 196 60 3 12 10 59 16 103 l12 81 -50 62 c-73 91 -96 161 -95 291 1 119 17 173 78 262 43 62 38 68 -64 68 -58 0 -81 5 -108 21 -43 27 -73 91 -80 172 -3 32 -9 59 -12 62 -4 2 -16 -4 -28 -13z"/> <path d="M4135 2313 c-10 -73 -35 -134 -69 -165 -28 -26 -37 -28 -114 -28 -62 0 -84 -4 -88 -14 -6 -15 7 -46 29 -68 34 -34 77 -174 77 -253 0 -42 -25 -157 -40 -185 -13 -24 -8 -208 6 -273 12 -51 54 -70 168 -75 l102 -4 19 28 c82 121 130 238 151 364 7 47 14 112 13 145 0 114 -32 274 -68 343 -5 9 -18 35 -28 57 -10 22 -38 70 -63 108 -33 49 -50 67 -67 67 -19 0 -23 -7 -28 -47z"/> <path d="M2131 2331 c-75 -6 -86 -10 -107 -34 -21 -25 -24 -39 -26 -120 -3 -156 -10 -140 94 -238 51 -48 98 -88 103 -89 14 0 285 273 285 288 0 6 -43 55 -95 107 -107 106 -83 99 -254 86z"/> <path d="M2633 2177 c-54 -51 -138 -136 -188 -188 -49 -51 -154 -158 -232 -237 -79 -80 -143 -148 -143 -153 0 -9 23 -15 87 -22 125 -14 170 -60 180 -185 4 -58 10 -82 19 -82 7 0 160 147 339 328 l326 327 -7 110 c-9 156 -12 160 -126 174 -51 6 -107 14 -125 17 -29 5 -39 -2 -130 -89z"/> <path d="M2738 1590 c-76 -77 -138 -145 -138 -152 0 -23 246 -262 263 -255 10 4 19 33 27 89 16 115 50 153 151 168 96 15 109 19 109 34 0 8 -12 24 -27 36 -16 12 -74 66 -130 121 -56 54 -105 99 -110 98 -4 0 -70 -63 -145 -139z"/> <path d="M1991 1526 c-11 -6 -47 -35 -82 -64 -34 -30 -83 -63 -108 -74 -25 -12 -58 -27 -73 -35 -38 -19 -244 -22 -278 -3 -26 15 -90 40 -102 40 -10 0 -26 -58 -34 -120 -12 -96 -78 -140 -211 -140 -34 0 -64 -4 -68 -9 -7 -12 66 -70 120 -96 22 -11 47 -25 55 -30 8 -6 42 -19 75 -29 33 -10 80 -25 104 -32 63 -20 306 -19 385 1 106 27 171 48 186 61 8 6 25 15 37 18 39 12 138 82 206 146 l67 62 0 118 c0 116 -1 119 -26 139 -45 35 -218 67 -253 47z"/> <path d="M3780 1430 c-19 -16 -53 -36 -75 -45 -22 -10 -55 -23 -73 -31 -20 -8 -68 -14 -120 -14 -83 0 -130 10 -222 47 -29 11 -57 12 -154 3 -65 -6 -123 -13 -130 -17 -29 -18 -42 -54 -52 -153 l-10 -105 37 -35 c21 -19 55 -44 76 -55 21 -10 45 -24 53 -30 8 -6 40 -19 70 -28 30 -9 80 -24 110 -34 68 -21 361 -24 397 -5 12 7 44 17 70 22 52 9 85 23 178 73 97 51 201 138 190 158 -4 5 -36 9 -73 9 -51 0 -76 6 -106 23 -63 35 -78 64 -85 159 -5 73 -8 83 -26 85 -11 2 -36 -10 -55 -27z"/> </g> </svg>