<svg
  version="1.0"
  xmlns="http://www.w3.org/2000/svg"
  width="300.000000pt"
  height="265.000000pt"
  viewBox="0 0 300.000000 265.000000"
  preserveAspectRatio="xMidYMid meet"
>
  <g transform="translate(0.000000,265.000000) scale(0.050000,-0.050000)" fill="#B0B6C3" stroke="none">
    <path
      d="M4264 4362 c-465 -173 -502 -778 -62 -1003 363 -185 823 139 770 543 -47 349 -395 576 -708 460z m351 -235 c237 -177 162 -554 -119 -600 -402 -65 -553 485 -176 640 60 24 241 0 295 -40z"
    ></path>
    <path
      d="M2250 3932 c-78 -35 -93 -54 -290 -372 -92 -148 -417 -667 -722 -1153 -306 -486 -574 -920 -597 -964 -105 -207 16 -495 223 -533 36 -6 917 -9 1956 -6 l1890 6 84 57 c144 98 214 285 168 447 -22 76 -951 1605 -998 1641 -104 81 -160 32 -375 -330 -161 -272 -175 -289 -197 -232 -23 59 -828 1335 -873 1383 -77 83 -166 102 -269 56z m326 -522 c109 -176 447 -716 751 -1200 584 -931 595 -953 515 -1053 l-38 -47 -1443 -5 -1443 -6 -59 59 c-75 75 -74 130 4 253 34 54 319 509 633 1009 792 1265 767 1225 798 1276 47 77 76 47 282 -286z m1540 -980 c120 -198 314 -517 431 -709 248 -408 260 -455 142 -559 l-70 -62 -282 0 c-260 0 -280 3 -266 35 27 62 34 183 13 243 -19 55 -459 774 -515 842 -24 30 279 583 314 574 8 -2 112 -166 233 -364z"
    ></path>
  </g>
</svg>
