<svg
  version="1.0"
  xmlns="http://www.w3.org/2000/svg"
  width="267.000000pt"
  height="217.000000pt"
  viewBox="0 0 267.000000 217.000000"
  preserveAspectRatio="xMidYMid meet"
>
  <g transform="translate(0.000000,217.000000) scale(0.050000,-0.050000)" fill="#B0B6C3" stroke="none">
    <path
      d="M1206 3644 c-25 -4 -68 -34 -96 -67 l-51 -61 6 -1138 5 -1137 50 -50 c46 -46 857 -231 1455 -331 161 -27 1550 256 1625 331 l50 50 5 1139 6 1138 -57 64 c-73 81 -60 82 -879 -31 l-665 -92 -665 90 c-366 50 -683 93 -705 96 -22 3 -60 3 -84 -1z m1079 -334 l275 -36 0 -1109 c0 -992 -3 -1108 -31 -1097 -17 6 -289 62 -605 123 -316 62 -594 117 -619 123 l-45 10 0 1063 0 1064 375 -53 c206 -29 499 -69 650 -88z m1768 -1984 c-4 -4 -278 -60 -610 -125 -331 -65 -620 -124 -642 -131 -41 -13 -41 -9 -41 1096 l0 1108 275 36 c151 20 442 59 645 88 l370 52 5 -1058 c3 -582 2 -1062 -2 -1066z"
    ></path>
    <path
      d="M787 3430 c-134 -56 -129 0 -122 -1297 l5 -1172 51 -51 c45 -46 141 -69 995 -239 l944 -188 845 167 c1142 227 1046 203 1104 273 l51 60 0 1166 c0 1302 7 1237 -140 1288 l-60 21 0 -1209 c0 -665 -2 -1209 -5 -1209 -3 0 -408 -81 -900 -179 l-895 -179 -895 179 c-492 98 -897 179 -900 179 -3 0 -7 544 -10 1208 l-5 1209 -63 -27z"
    ></path>
  </g>
</svg>
