 <svg version="1.0" xmlns="http://www.w3.org/2000/svg"  width="254.000000pt" height="187.000000pt" viewBox="0 0 254.000000 187.000000"  preserveAspectRatio="xMidYMid meet">  <g transform="translate(0.000000,187.000000) scale(0.050000,-0.050000)" fill="#A7B3C4" stroke="none"> <path d="M2893 3130 c-97 -97 -17 -170 186 -170 219 0 209 15 407 -583 l170 -514 -130 -63 c-217 -107 -431 -367 -475 -575 l-14 -65 -260 0 c-411 0 -417 7 -417 502 0 505 8 498 -510 498 -775 0 -1090 -257 -1090 -892 0 -243 59 -308 278 -308 l117 0 23 -117 c125 -635 1039 -635 1164 0 l23 117 395 0 c443 0 444 0 467 148 83 547 801 783 1239 408 73 -62 79 -64 130 -35 210 118 -233 419 -616 419 l-135 0 -23 88 c-12 49 -48 157 -80 240 -67 173 -66 173 80 92 258 -142 338 -66 338 322 0 296 -15 360 -93 396 -80 36 -118 27 -329 -79 -111 -56 -204 -99 -205 -95 -120 258 -157 284 -411 293 -162 5 -201 1 -229 -27z m1067 -470 c0 -99 -4 -180 -10 -180 -20 0 -350 169 -350 180 0 12 319 177 345 179 8 0 15 -80 15 -179z m-1800 -1031 c0 -243 8 -349 29 -400 l29 -69 -629 0 -629 0 0 136 c0 483 231 662 855 663 l345 1 0 -331z m-8 -733 c-86 -433 -698 -433 -784 0 l-13 64 405 0 405 0 -13 -64z"/> <path d="M1391 2529 c-17 -18 -31 -49 -31 -69 0 -93 35 -100 500 -100 371 0 442 5 469 31 40 41 40 97 0 138 -47 47 -891 47 -938 0z"/> <path d="M3768 1525 c-420 -150 -539 -670 -226 -983 377 -377 1007 -115 1007 418 0 410 -402 700 -781 565z m314 -188 c376 -130 355 -658 -31 -761 -177 -47 -354 38 -441 212 -156 312 145 661 472 549z"/> </g> </svg>