<!--?xml version="1.0" standalone="no"?-->
<svg
  version="1.0"
  xmlns="http://www.w3.org/2000/svg"
  width="48.000000pt"
  height="48.000000pt"
  viewBox="0 0 48.000000 48.000000"
  preserveAspectRatio="xMidYMid mee"
  transform="scale(0.8)"
>
  <g transform="translate(0.000000,48.000000) scale(0.100000,-0.100000)" fill="#868d97" stroke="none">
    <path
      d="M304 409 c-3 -6 8 -25 25 -43 35 -37 43 -86 13 -86 -10 0 -33 -13
-52 -30 -41 -35 -61 -37 -85 -10 -18 19 -17 20 2 20 11 0 28 9 37 19 10 11 30
21 45 23 37 4 34 32 -5 36 -20 2 -36 -4 -49 -18 -15 -16 -30 -20 -85 -20 -38
0 -71 5 -78 12 -20 20 -37 -5 -20 -31 9 -15 23 -21 48 -21 29 0 44 -8 75 -40
48 -49 78 -51 125 -10 25 20 46 29 72 30 39 0 68 21 68 49 0 15 -107 131 -122
131 -4 0 -10 -5 -14 -11z"
    ></path>
    <path
      d="M45 195 c-69 -68 23 -175 103 -119 12 8 22 21 22 29 0 9 14 15 43 17
29 2 42 8 42 18 0 10 -13 16 -42 18 -24 2 -43 7 -43 13 0 5 -9 18 -20 29 -28
28 -75 26 -105 -5z m78 -22 c4 -3 -1 -12 -11 -20 -16 -12 -16 -14 2 -28 18
-14 18 -15 1 -21 -36 -14 -70 31 -45 61 13 16 42 20 53 8z"
    ></path>
    <path
      d="M345 208 c-51 -27 -60 -84 -20 -123 49 -50 135 -15 135 55 0 59 -63
97 -115 68z m65 -43 c26 -32 -13 -81 -47 -59 -23 14 -28 41 -13 59 16 19 44
19 60 0z"
    ></path>
  </g>
</svg>
