 <svg version="1.0" xmlns="http://www.w3.org/2000/svg" transform="scale(0.9)" width="213.000000pt" height="182.000000pt" viewBox="0 0 213.000000 182.000000"  preserveAspectRatio="xMidYMid meet">  <g transform="translate(0.000000,182.000000) scale(0.050000,-0.050000)" fill="#A7B3C4" stroke="none"> <path d="M2728 3262 c-310 -141 -249 -591 89 -655 154 -29 336 88 384 247 83 279 -206 529 -473 408z m243 -211 c27 -27 49 -72 49 -101 0 -28 -22 -74 -49 -101 -27 -27 -72 -49 -101 -49 -28 0 -74 22 -101 49 -27 27 -49 73 -49 101 0 29 22 74 49 101 27 27 73 49 101 49 29 0 74 -22 101 -49z"/> <path d="M1146 2952 c-20 -26 -45 -63 -56 -82 -19 -32 -25 -32 -95 2 -176 84 -254 -91 -80 -180 75 -38 75 -35 33 -115 -100 -194 92 -237 204 -46 19 34 94 2 938 -398 942 -447 991 -465 1020 -373 26 82 -8 113 -239 220 l-228 105 -53 232 c-118 516 -239 582 -663 363 -278 -143 -226 -140 -461 -30 -233 109 -216 93 -177 167 72 141 -50 257 -143 135z m1157 -385 c25 -30 120 -350 108 -363 -3 -3 -120 51 -260 119 l-254 125 146 75 c163 83 219 93 260 44z"/> <path d="M1460 2189 c0 -67 68 -151 364 -443 l307 -304 -218 -262 c-120 -144 -223 -259 -230 -256 -7 3 -312 157 -677 341 -707 356 -702 354 -753 298 -91 -100 -150 -64 1322 -802 1450 -728 1365 -697 1654 -601 186 61 238 130 160 209 -42 42 -87 39 -202 -11 -196 -85 -234 -75 -799 211 l-507 257 85 101 c46 56 144 172 217 259 214 254 209 287 -109 610 -233 237 -614 481 -614 393z"/> </g> </svg>