<svg
  version="1.0"
  xmlns="http://www.w3.org/2000/svg"
  width="283.000000pt"
  height="226.000000pt"
  viewBox="0 0 283.000000 226.000000"
  preserveAspectRatio="xMidYMid meet"
  transform="scale(1.1)"
>
  <g transform="translate(0.000000,226.000000) scale(0.050000,-0.050000)" fill="#B0B6C3" stroke="none">
    <path
      d="M2248 3762 c-76 -47 -136 -166 -119 -239 7 -29 66 -221 132 -426 65 -205 119 -379 119 -385 0 -7 -71 -12 -158 -12 l-158 0 -131 177 c-158 211 -181 223 -426 223 -385 0 -424 -83 -269 -585 l96 -315 -96 -315 c-155 -502 -116 -585 269 -585 245 0 268 12 426 223 l131 177 158 0 c87 0 158 -5 158 -12 0 -6 -54 -180 -119 -385 -154 -483 -151 -466 -109 -554 56 -117 127 -149 340 -149 334 0 332 -1 730 622 l304 478 252 0 c528 1 907 174 951 434 56 333 -330 565 -941 566 l-262 0 -304 478 c-320 500 -369 562 -480 599 -115 39 -421 29 -494 -15z m723 -757 c426 -669 338 -600 776 -609 946 -21 907 -396 -41 -396 l-319 0 -50 -55 c-28 -30 -193 -278 -366 -550 l-315 -495 -105 0 -106 0 148 463 c211 662 222 637 -294 637 -408 0 -368 16 -542 -212 -138 -182 -145 -188 -222 -188 -66 0 -77 6 -66 34 7 18 50 153 96 300 l83 266 -83 266 c-46 147 -89 282 -96 300 -11 28 0 34 66 34 77 0 84 -6 222 -188 174 -228 134 -212 542 -212 516 0 505 -25 294 637 l-148 463 105 0 105 0 316 -495z"
    ></path>
  </g>
</svg>
