<?xml version="1.0" standalone="no"?>
<!DOCTYPE svg PUBLIC "-//W3C//DTD SVG 20010904//EN"
 "http://www.w3.org/TR/2001/REC-SVG-20010904/DTD/svg10.dtd">
<svg version="1.0" xmlns="http://www.w3.org/2000/svg"
 width="300.000000pt" height="300.000000pt" viewBox="0 0 300.000000 300.000000"
 preserveAspectRatio="xMidYMid meet">
<g transform="translate(0.000000,300.000000) scale(0.100000,-0.100000)"
fill="#000000" stroke="none">
<path d="M1130 2993 c-25 -3 -52 -10 -60 -18 -8 -7 -63 -36 -121 -65 -128 -64
-138 -77 -128 -170 4 -36 5 -68 3 -72 -3 -4 1 -27 7 -52 6 -25 7 -51 2 -59 -4
-9 -49 -58 -99 -109 -178 -184 -268 -363 -281 -557 -3 -44 -13 -97 -25 -126
-17 -40 -22 -78 -26 -185 -7 -214 32 -381 97 -414 37 -20 108 -22 94 -3 -6 6
-14 29 -17 50 -10 54 8 39 29 -23 17 -52 60 -88 91 -76 20 8 17 24 -3 22 -15
-1 -17 8 -15 67 2 54 0 67 -10 61 -10 -6 -11 -5 -1 7 9 11 10 31 4 69 -5 30
-5 64 -1 76 5 12 11 70 15 130 3 60 15 156 26 214 10 58 23 148 29 200 19 173
30 224 61 285 33 64 65 105 83 105 6 0 18 5 26 10 13 9 13 11 0 20 -12 8 -9
10 13 10 16 0 38 10 52 24 26 26 125 50 111 27 -5 -8 -1 -8 18 0 20 9 29 9 41
-1 11 -9 13 -15 5 -20 -7 -4 -1 -9 14 -12 14 -3 26 -2 26 3 0 21 175 -19 193
-45 5 -7 11 -6 18 7 6 9 14 15 20 12 5 -3 6 1 3 9 -4 11 0 16 10 16 9 0 16 4
16 10 0 5 7 7 15 4 18 -7 20 -35 3 -54 -7 -8 -3 -6 9 4 13 10 22 28 21 40 -2
43 19 73 56 80 20 4 40 4 45 1 5 -3 12 1 14 7 3 7 6 5 6 -6 1 -19 1 -19 24 0
12 10 16 12 10 4 -17 -19 -17 -35 0 -21 8 6 17 8 20 4 4 -3 7 1 7 10 0 21 7
21 25 3 8 -7 11 -17 7 -22 -4 -5 0 -3 9 3 12 10 18 7 34 -19 18 -30 19 -31 26
-10 5 12 13 22 19 22 6 0 8 -6 4 -12 -5 -9 -4 -10 3 -3 6 6 16 27 23 47 16 51
30 57 16 7 -8 -32 -8 -42 4 -49 9 -6 20 -4 29 3 12 10 13 9 2 -10 -16 -31 -9
-29 31 7 18 17 36 30 41 30 5 0 -5 -12 -22 -26 -17 -14 -31 -31 -31 -37 0 -6
13 2 30 18 16 16 32 26 36 23 3 -3 -11 -18 -30 -33 -43 -33 -46 -48 -8 -40 26
6 26 6 8 -9 -18 -15 -18 -16 -2 -16 9 0 15 -4 11 -9 -3 -5 8 -33 25 -61 17
-29 35 -75 41 -103 15 -76 18 -84 28 -68 6 10 10 9 15 -5 4 -10 2 -21 -4 -24
-8 -5 -6 -9 4 -13 9 -4 16 -11 16 -18 0 -6 -7 -9 -14 -6 -10 4 -13 1 -9 -8 3
-8 10 -12 16 -8 6 4 7 1 2 -6 -4 -7 -7 -74 -7 -149 l-1 -137 -8 109 c-5 61
-11 115 -13 120 -9 22 -5 -141 4 -199 22 -124 28 -174 41 -310 9 -95 16 -130
20 -110 6 25 7 23 8 -17 0 -27 1 -51 2 -55 0 -4 -5 -9 -11 -11 -8 -3 -10 3 -5
18 5 15 4 20 -4 16 -6 -4 -11 -19 -11 -34 0 -15 -4 -43 -10 -61 -5 -19 -8 -37
-5 -39 2 -2 9 17 16 43 10 38 14 44 21 30 7 -12 3 -35 -13 -78 -21 -55 -24
-59 -30 -37 -4 14 -7 20 -8 13 -1 -6 -4 -18 -7 -27 -4 -11 0 -16 14 -16 32 0
68 36 87 87 10 26 22 52 26 57 5 6 9 18 9 27 0 10 5 21 10 24 15 9 1 -105 -16
-131 -12 -20 -11 -22 9 -28 37 -9 90 24 114 74 41 83 55 158 60 320 5 141 3
160 -16 208 -12 29 -21 75 -21 103 0 67 -52 244 -100 339 -21 42 -64 110 -94
151 -31 41 -56 83 -56 94 0 11 -11 39 -25 63 -23 41 -16 58 14 30 11 -11 12
-10 6 2 -16 27 -40 50 -52 50 -7 0 -13 7 -13 16 0 10 6 14 15 10 19 -7 19 8
-1 47 -40 77 -40 77 -19 77 8 0 15 7 15 15 0 13 -4 14 -20 5 -23 -12 -45 -3
-72 29 -18 21 -45 30 -33 11 3 -6 -1 -7 -10 -4 -14 6 -14 8 2 19 10 7 27 15
38 18 11 2 -2 5 -29 6 -36 1 -56 7 -78 26 -17 15 -43 25 -61 26 -18 0 -41 5
-52 10 -16 7 -14 9 12 6 40 -4 34 9 -9 18 -17 4 -47 16 -65 26 -27 15 -54 19
-137 19 -74 0 -112 4 -135 16 -18 9 -45 14 -61 12 -16 -2 -27 -1 -24 4 3 5 -6
6 -20 3 -14 -3 -38 -7 -52 -10 -16 -4 -23 -2 -19 5 3 5 3 9 -2 8 -4 -1 -28 -3
-53 -5z m121 -49 c30 -24 31 -26 9 -20 -14 3 -33 6 -42 6 -11 0 -16 7 -15 20
2 26 6 25 48 -6z m102 10 c18 -9 34 -20 37 -24 3 -4 12 -10 20 -13 8 -4 -1 -4
-20 -1 -19 4 -39 12 -45 19 -5 7 -19 17 -30 23 -32 18 3 14 38 -4z m235 -22
c9 -10 22 -27 27 -37 6 -9 28 -21 50 -25 l40 -8 -35 -1 c-43 -1 -102 32 -94
53 6 15 -5 20 -66 29 -14 3 -7 5 18 6 29 1 47 -5 60 -17z m-128 -2 c-8 -5 -19
-10 -25 -10 -5 0 -3 5 5 10 8 5 20 10 25 10 6 0 3 -5 -5 -10z m57 -7 c-4 -3
-10 -3 -14 0 -3 4 0 7 7 7 7 0 10 -3 7 -7z m108 -3 c3 -5 4 -10 1 -10 -3 0 -8
5 -11 10 -3 6 -4 10 -1 10 3 0 8 -4 11 -10z m-632 -31 c-38 -67 -43 -74 -43
-61 0 16 18 51 38 75 23 26 25 21 5 -14z m47 27 c0 -3 -5 -8 -12 -12 -7 -4 -8
-3 -4 4 7 12 16 16 16 8z m527 -3 c-4 -3 -10 -3 -14 0 -3 4 0 7 7 7 7 0 10 -3
7 -7z m-603 -17 c-3 -8 -12 -17 -20 -20 -7 -3 -12 -11 -10 -18 1 -7 1 -10 -1
-6 -3 4 -13 2 -22 -4 -11 -6 -27 -8 -37 -3 -17 6 -15 9 11 18 17 5 41 18 54
28 29 23 32 23 25 5z m631 -26 c39 -27 84 -70 73 -70 -3 0 -32 20 -64 45 -31
25 -65 45 -73 45 -9 0 -23 5 -31 11 -11 7 -6 8 20 3 19 -3 53 -19 75 -34z
m-259 12 c-16 -2 -32 0 -37 5 -5 5 7 7 29 4 34 -5 35 -6 8 -9z m51 -9 c-4 -3
-10 -3 -14 0 -3 4 0 7 7 7 7 0 10 -3 7 -7z m46 -10 c-7 -2 -19 -2 -25 0 -7 3
-2 5 12 5 14 0 19 -2 13 -5z m42 -11 c-3 -3 -11 0 -18 7 -9 10 -8 11 6 5 10
-3 15 -9 12 -12z m-138 1 c-4 -3 -10 -3 -14 0 -3 4 0 7 7 7 7 0 10 -3 7 -7z
m76 -10 c-7 -2 -19 -2 -25 0 -7 3 -2 5 12 5 14 0 19 -2 13 -5z m162 -3 c4 -6
33 -24 66 -40 32 -17 59 -33 59 -36 0 -3 -7 -4 -15 0 -18 6 -19 1 -5 -25 9
-15 7 -23 -6 -37 -16 -16 -17 -15 -11 9 4 17 1 33 -9 45 -14 18 -15 18 -8 -6
7 -24 6 -24 -17 -8 -13 9 -23 21 -21 28 4 17 -20 37 -42 35 -16 -2 -17 -1 -3
2 18 4 18 6 1 24 -9 10 -12 19 -6 19 6 0 14 -5 17 -10z m230 0 c7 -12 -2 -12
-30 0 -19 8 -19 9 2 9 12 1 25 -3 28 -9z m-926 -24 c10 -12 8 -13 -8 -9 -18 5
-21 0 -22 -28 -2 -31 -2 -32 -6 -6 -3 16 1 35 8 43 14 17 14 17 28 0z m454 7
c-13 -2 -35 -2 -50 0 -16 2 -5 4 22 4 28 0 40 -2 28 -4z m-406 -9 c-3 -3 -12
-4 -19 -1 -8 3 -5 6 6 6 11 1 17 -2 13 -5z m416 -11 c-13 -2 -35 -2 -50 0 -16
2 -5 4 22 4 28 0 40 -2 28 -4z m124 0 c-4 -3 -10 -3 -14 0 -3 4 0 7 7 7 7 0
10 -3 7 -7z m362 5 c-2 -2 -16 -14 -31 -27 -16 -14 -28 -22 -28 -18 0 10 42
47 54 47 5 0 7 -1 5 -2z m-912 -25 c-4 -3 -7 0 -7 7 0 7 3 10 7 7 3 -4 3 -10
0 -14z m-24 -13 c-3 -11 -7 -20 -9 -20 -2 0 -4 9 -4 20 0 11 4 20 9 20 5 0 7
-9 4 -20z m552 0 c23 -26 4 -26 -26 0 -18 15 -20 19 -8 20 9 0 24 -9 34 -20z
m48 5 c-3 -9 -8 -14 -10 -11 -3 3 -2 9 2 15 9 16 15 13 8 -4z m-112 -7 c8 -7
22 -22 29 -33 13 -17 11 -17 -17 3 -18 13 -35 27 -38 32 -9 14 9 12 26 -2z
m145 -23 c9 -8 11 -15 6 -15 -5 0 -15 7 -22 15 -7 8 -9 15 -6 15 4 0 14 -7 22
-15z m403 -11 c30 -12 43 -25 55 -55 18 -45 20 -63 6 -54 -5 3 -10 13 -10 21
0 8 -7 26 -17 40 -12 19 -18 22 -25 12 -8 -10 -9 -9 -5 4 6 18 -11 28 -49 28
-13 0 -24 5 -24 10 0 14 24 12 69 -6z m-304 -14 c-3 -5 -23 -10 -43 -9 -33 1
-34 2 -12 9 36 12 62 12 55 0z m125 -20 c-8 -5 -19 -10 -25 -10 -5 0 -3 5 5
10 8 5 20 10 25 10 6 0 3 -5 -5 -10z m-143 -17 c-4 -3 -10 -3 -14 0 -3 4 0 7
7 7 7 0 10 -3 7 -7z m-748 -50 c-1 -33 -2 -35 -8 -13 -4 14 -6 31 -3 38 8 22
12 13 11 -25z m911 33 c0 -3 -25 -18 -55 -34 -30 -17 -52 -26 -49 -21 3 5 -4
9 -15 9 -32 0 -36 20 -4 21 24 0 25 1 8 9 -14 6 -2 9 45 12 36 2 66 5 68 6 1
1 2 0 2 -2z m-820 -39 c0 -5 -4 -5 -10 -2 -5 3 -10 14 -10 23 0 15 2 15 10 2
5 -8 10 -19 10 -23z m450 9 c0 -3 -5 -8 -12 -12 -7 -4 -8 -3 -4 4 7 12 16 16
16 8z m548 -44 c-2 -9 -6 -15 -10 -12 -3 3 -15 -6 -27 -20 l-21 -25 10 25 c6
14 15 38 21 54 10 24 13 26 21 12 5 -9 8 -24 6 -34z m-348 31 c-8 -3 -24 -10
-35 -15 -20 -9 -20 -9 -1 6 11 9 27 16 35 15 14 0 14 -1 1 -6z m147 -35 c-3
-8 -6 -5 -6 6 -1 11 2 17 5 13 3 -3 4 -12 1 -19z m-870 5 c-4 -3 -2 -12 4 -20
8 -9 8 -13 1 -13 -6 0 -14 5 -17 10 -6 10 2 30 12 30 4 0 3 -3 0 -7z m83 -1
c0 -5 10 -14 23 -20 21 -10 21 -11 2 -11 -21 -1 -45 16 -45 31 0 4 5 8 10 8 6
0 10 -4 10 -8z m665 -2 c-3 -5 -14 -10 -23 -9 -14 0 -13 2 3 9 27 11 27 11 20
0z m265 -4 c0 -2 -8 -10 -17 -17 -16 -13 -17 -12 -4 4 13 16 21 21 21 13z
m-550 -27 c-7 -11 -14 -18 -17 -15 -3 3 0 12 7 21 18 21 23 19 10 -6z m-426
-31 c12 -17 13 -24 4 -29 -7 -5 -18 -3 -25 3 -10 8 -13 6 -13 -6 0 -9 5 -16
12 -16 6 0 8 -3 5 -6 -11 -11 14 -46 29 -40 8 3 14 -1 14 -9 0 -19 -34 -19
-54 0 -8 8 -23 12 -33 9 -13 -4 -15 -3 -4 4 10 7 11 14 2 31 -13 24 -33 29
-25 6 4 -8 1 -15 -4 -15 -6 0 -21 -15 -33 -32 l-23 -33 26 23 c14 13 28 19 32
14 3 -5 -19 -30 -49 -56 -40 -34 -55 -42 -55 -30 0 9 10 25 22 35 11 11 17 19
13 19 -4 0 -1 8 7 18 9 9 19 26 22 37 10 32 67 92 73 78 7 -18 23 -16 23 2 0
22 16 18 34 -7z m1093 15 c-4 -3 -10 -3 -14 0 -3 4 0 7 7 7 7 0 10 -3 7 -7z
m31 -78 c-3 -3 -9 2 -12 12 -6 14 -5 15 5 6 7 -7 10 -15 7 -18z m-548 -19 c0
-3 -5 -8 -12 -12 -7 -4 -8 -3 -4 4 7 12 16 16 16 8z m567 -53 c-4 -3 -7 0 -7
7 0 7 3 10 7 7 3 -4 3 -10 0 -14z m38 -55 c-15 -9 -9 -42 13 -75 9 -15 10 -23
3 -23 -18 0 -13 -18 35 -117 47 -98 52 -116 39 -145 -5 -14 -2 -18 11 -18 18
-1 18 -1 1 -11 -16 -10 -16 -12 -1 -39 10 -15 23 -26 30 -23 7 2 15 -5 19 -16
3 -12 11 -21 16 -21 6 0 7 9 4 20 -7 23 -2 25 26 10 15 -8 19 -22 19 -61 0
-27 6 -60 14 -72 8 -12 17 -58 20 -102 3 -44 3 -74 0 -67 -3 6 -11 9 -16 5 -8
-4 -9 10 -5 45 3 29 2 54 -4 57 -5 4 -9 -11 -9 -33 0 -37 -2 -39 -26 -34 -34
6 -29 -17 7 -35 14 -8 18 -13 9 -13 -9 0 -26 7 -39 16 -23 17 -24 19 -17 124
7 117 3 140 -25 140 -10 0 -19 4 -19 9 0 5 -15 14 -32 21 -98 36 -96 33 -87
87 12 72 11 218 -2 250 -13 34 -18 86 -11 131 4 32 5 32 22 15 13 -14 14 -20
5 -25z m-1275 18 c0 -2 -8 -10 -17 -17 -16 -13 -17 -12 -4 4 13 16 21 21 21
13z m-103 -53 c-4 -3 -10 -3 -14 0 -3 4 0 7 7 7 7 0 10 -3 7 -7z m33 -28 c-7
-8 -16 -15 -21 -15 -5 0 -1 9 8 20 9 11 19 17 21 15 3 -3 -1 -11 -8 -20z m-42
-2 c-2 -11 -14 -19 -28 -20 -23 -2 -23 -2 -5 6 11 5 14 10 7 10 -18 1 -4 21
14 21 9 0 14 -7 12 -17z m62 -16 c0 -2 -10 -12 -22 -23 l-23 -19 19 23 c18 21
26 27 26 19z m-74 -88 c-9 -31 -16 -90 -16 -143 0 -92 -13 -126 -47 -126 -8 0
-30 -12 -49 -27 -40 -30 -61 -21 -50 22 7 26 8 27 22 9 9 -11 13 -14 10 -7 -4
6 -2 14 3 18 6 3 9 21 7 40 -1 19 2 31 7 28 5 -3 6 3 3 15 -8 24 36 128 85
198 38 56 46 47 25 -27z m1376 -1 c3 -27 1 -48 -4 -48 -4 0 -8 7 -8 15 0 8 -5
24 -12 34 -9 15 -9 23 2 35 16 21 17 20 22 -36z m-1322 27 c-6 -8 -9 -18 -6
-23 3 -5 -3 -25 -14 -44 -23 -43 -23 -78 0 -71 12 4 12 2 -1 -9 -12 -9 -16
-25 -13 -48 2 -19 -2 -87 -8 -150 -10 -90 -14 -106 -18 -75 -3 22 -3 51 1 65
15 53 19 81 12 77 -12 -8 -6 179 7 203 6 11 8 25 5 30 -3 6 -2 10 3 10 6 0 13
11 16 25 4 14 11 25 17 25 8 0 8 -5 -1 -15z m-10 -105 c0 -11 -4 -20 -9 -20
-5 0 -7 9 -4 20 3 11 7 20 9 20 2 0 4 -9 4 -20z m-218 -210 c4 -19 10 -77 14
-128 6 -81 5 -95 -11 -112 -18 -20 -52 -29 -41 -11 3 5 -5 11 -19 13 -20 4
-24 1 -27 -20 -2 -14 -8 -27 -14 -29 -7 -2 -10 7 -7 24 14 94 26 149 39 168 8
12 16 44 18 71 2 27 4 53 5 57 1 5 9 7 18 5 10 -2 20 -17 25 -38z m147 -106
c-1 -66 -4 -102 -10 -93 -16 25 -10 199 7 199 2 0 3 -48 3 -106z m1466 57 c1
-10 7 -26 14 -35 11 -14 11 -16 -5 -16 -18 -1 -18 -1 -1 -11 9 -5 17 -14 17
-19 0 -5 -8 -6 -17 -3 -15 6 -16 4 -5 -9 10 -13 10 -17 0 -22 -10 -5 -10 -7 0
-12 18 -8 15 -24 -3 -17 -10 3 -15 1 -13 -7 2 -7 -3 -15 -9 -17 -13 -5 -17 17
-15 87 0 19 1 57 1 85 1 46 2 48 18 33 9 -9 17 -26 18 -37z m-1530 17 c-3 -13
-9 -68 -13 -122 -6 -84 -10 -100 -24 -102 -21 -3 -22 4 -8 40 5 14 6 26 2 26
-14 0 9 144 26 163 20 23 24 22 17 -5z m28 -40 c-8 -88 -25 -122 -19 -38 4 60
13 100 22 100 2 0 0 -28 -3 -62z m1579 4 c12 -33 13 -213 0 -221 -5 -3 -12
-13 -15 -21 -3 -8 -6 37 -6 101 -1 64 -4 131 -8 149 -7 40 12 34 29 -8z
m-1661 -254 c1 -7 3 -25 5 -40 1 -15 -1 -30 -6 -33 -4 -3 -6 -15 -2 -27 3 -14
2 -19 -7 -14 -6 4 -9 11 -6 16 3 5 1 11 -5 15 -5 3 -10 26 -10 51 0 32 4 44
15 44 8 0 16 -6 16 -12z m36 -15 c-4 -3 -7 0 -7 7 0 7 3 10 7 7 3 -4 3 -10 0
-14z m-160 -30 c-4 -3 -7 0 -7 7 0 7 3 10 7 7 3 -4 3 -10 0 -14z m230 -30 c-4
-3 -7 0 -7 7 0 7 3 10 7 7 3 -4 3 -10 0 -14z m1640 -230 c-4 -3 -7 0 -7 7 0 7
3 10 7 7 3 -4 3 -10 0 -14z m-21 -50 c-8 -15 -15 -25 -16 -21 0 12 23 58 27
54 3 -2 -2 -17 -11 -33z"/>
<path d="M1684 2634 c-18 -14 -18 -15 4 -4 12 6 22 13 22 15 0 8 -5 6 -26 -11z"/>
<path d="M2260 1710 c0 -5 5 -10 11 -10 5 0 7 5 4 10 -3 6 -8 10 -11 10 -2 0
-4 -4 -4 -10z"/>
<path d="M1947 2769 c7 -7 15 -10 18 -7 3 3 -2 9 -12 12 -14 6 -15 5 -6 -5z"/>
<path d="M1553 2473 c4 -3 10 -3 14 0 3 4 0 7 -7 7 -7 0 -10 -3 -7 -7z"/>
<path d="M1521 2444 c0 -11 3 -14 6 -6 3 7 2 16 -1 19 -3 4 -6 -2 -5 -13z"/>
<path d="M1405 2329 c-11 -17 0 -20 21 -4 17 13 17 14 2 15 -9 0 -20 -5 -23
-11z"/>
<path d="M1130 1980 c0 -7 3 -10 7 -7 3 4 3 10 0 14 -4 3 -7 0 -7 -7z"/>
<path d="M1095 1954 c9 -9 18 -14 21 -11 9 9 -6 27 -22 27 -13 0 -13 -2 1 -16z"/>
<path d="M965 1933 c-34 -5 -59 -23 -33 -23 9 0 19 -3 22 -8 2 -4 -14 -6 -37
-5 l-42 3 50 -15 c28 -9 80 -17 118 -19 60 -4 67 -2 67 14 0 10 -7 25 -15 33
-8 8 -12 17 -10 19 6 6 -82 7 -120 1z"/>
<path d="M1670 1904 c-19 -19 -34 -41 -32 -49 1 -7 -9 -22 -24 -32 -55 -38
-94 -76 -94 -90 0 -11 -6 -8 -21 8 l-20 24 6 -30 c17 -79 67 -133 147 -157 33
-10 41 -9 49 3 7 11 11 12 17 1 7 -10 13 -4 25 20 11 22 13 36 6 45 -8 9 -1
13 28 15 28 2 41 9 50 28 7 14 17 25 23 24 26 -3 30 -5 30 -17 0 -12 -50 -43
-95 -58 -17 -6 -17 -7 6 -8 14 -1 34 6 45 14 22 16 48 20 39 5 -3 -5 -2 -10 4
-10 5 0 14 6 18 14 4 7 14 15 20 17 23 7 -23 67 -58 77 -34 8 -52 32 -25 32
36 0 85 -34 100 -69 15 -34 15 -34 10 -6 -7 40 -33 65 -95 90 -68 27 -74 44
-17 47 24 1 56 1 73 -1 23 -1 27 1 18 10 -7 7 -21 13 -31 14 -10 0 -36 12 -58
25 -21 14 -43 25 -49 25 -5 1 -9 6 -7 13 5 27 -53 11 -88 -24z m10 -201 c0
-22 -2 -25 -10 -13 -13 20 -13 40 0 40 6 0 10 -12 10 -27z m98 0 c-10 -2 -28
-2 -40 0 -13 2 -5 4 17 4 22 1 32 -1 23 -4z"/>
<path d="M1195 1919 c-4 -6 -5 -12 -2 -15 2 -3 7 2 10 11 7 17 1 20 -8 4z"/>
<path d="M1828 1913 c7 -3 16 -2 19 1 4 3 -2 6 -13 5 -11 0 -14 -3 -6 -6z"/>
<path d="M843 1873 c15 -2 37 -2 50 0 12 2 0 4 -28 4 -27 0 -38 -2 -22 -4z"/>
<path d="M1905 1870 c11 -5 29 -8 40 -8 16 0 15 2 -5 8 -34 11 -60 11 -35 0z"/>
<path d="M1085 1830 c-3 -5 -19 -10 -35 -10 -70 0 -135 -22 -172 -60 -21 -21
-38 -46 -38 -56 1 -13 6 -8 18 15 9 19 29 43 43 53 29 22 117 38 105 20 -3 -6
2 -13 11 -15 13 -3 10 -5 -7 -6 -45 -2 -124 -46 -143 -80 -17 -30 -12 -42 9
-21 14 14 88 -16 78 -32 -5 -8 -2 -9 9 -5 10 3 17 2 17 -3 0 -6 -5 -10 -11
-10 -8 0 -8 -4 0 -14 7 -8 19 -12 29 -11 57 12 96 14 82 5 -22 -14 -10 -12 46
7 27 9 52 21 56 26 3 6 17 12 30 14 37 5 48 11 48 27 0 9 -7 12 -20 9 -11 -3
-20 -10 -20 -16 0 -6 -3 -7 -6 -4 -4 4 1 18 10 32 10 16 12 25 5 25 -6 0 -9 9
-6 20 7 25 -23 55 -70 71 -18 6 -33 15 -33 20 0 12 -27 12 -35 -1z m12 -147
c-13 -13 -13 -10 -3 22 9 30 12 32 14 15 2 -13 -3 -29 -11 -37z m-132 36 c-12
-18 36 -59 69 -60 l31 -1 -30 -13 c-16 -8 -23 -14 -15 -15 13 0 13 -1 0 -10
-14 -9 -33 6 -25 20 2 3 -19 17 -47 30 l-50 24 22 18 c24 20 55 25 45 7z m104
-3 c-2 -3 -16 -7 -29 -9 -14 -3 -31 -7 -39 -9 -7 -1 -15 2 -18 8 -2 7 14 11
44 13 25 0 45 -1 42 -3z"/>
<path d="M1281 1704 c0 -11 3 -14 6 -6 3 7 2 16 -1 19 -3 4 -6 -2 -5 -13z"/>
<path d="M1040 1580 c0 -5 5 -10 11 -10 5 0 7 5 4 10 -3 6 -8 10 -11 10 -2 0
-4 -4 -4 -10z"/>
<path d="M1013 1573 c4 -3 10 -3 14 0 3 4 0 7 -7 7 -7 0 -10 -3 -7 -7z"/>
<path d="M1030 1550 c0 -7 3 -10 7 -7 3 4 3 10 0 14 -4 3 -7 0 -7 -7z"/>
<path d="M1775 1549 c18 -5 43 -5 60 0 25 8 20 9 -30 9 -51 0 -55 -1 -30 -9z"/>
<path d="M1581 1415 c38 -81 40 -89 29 -111 -14 -25 -61 -51 -57 -31 1 8 -10
11 -33 10 -28 -1 -44 -12 -87 -58 l-53 -57 -31 23 c-18 12 -44 22 -60 22 -15
0 -26 4 -23 9 3 4 16 8 30 8 30 0 31 16 2 24 -42 11 -88 7 -94 -9 -4 -8 -11
-12 -18 -8 -7 4 -7 1 1 -9 7 -8 10 -18 6 -21 -3 -4 2 -7 13 -8 17 0 17 -1 -3
-16 -13 -8 -23 -23 -23 -32 0 -9 -9 -27 -19 -41 -15 -18 -17 -29 -9 -43 5 -10
7 -22 3 -25 -3 -3 -8 3 -11 15 -9 32 -33 17 -55 -33 -10 -24 -24 -44 -31 -44
-10 0 -10 2 -1 8 12 7 46 102 37 102 -2 0 -11 -14 -20 -32 -17 -33 -38 -58
-49 -58 -3 0 2 12 12 28 l17 27 -22 -19 c-22 -19 -22 -19 -16 -1 8 21 -6 15
-42 -17 -13 -11 -24 -15 -28 -10 -3 6 1 12 9 16 8 3 15 13 15 22 0 10 5 14 15
10 8 -3 15 -2 15 3 0 4 12 13 26 20 15 6 25 14 22 16 -8 9 -88 -35 -88 -48 0
-7 -10 -17 -22 -22 -12 -6 -31 -26 -42 -45 l-20 -35 24 20 23 20 -13 -25 c-12
-23 -12 -24 3 -11 10 8 17 9 17 3 0 -6 -5 -14 -11 -17 -6 -4 -8 -13 -6 -20 3
-6 -5 -30 -18 -53 -15 -27 -18 -39 -9 -35 8 3 14 8 14 12 0 4 7 8 15 8 11 0
14 -9 10 -38 -4 -33 -2 -37 13 -32 13 5 15 3 5 -7 -12 -13 -44 -7 -42 7 4 25
-3 35 -21 30 -13 -3 -20 0 -20 9 0 12 -4 12 -20 4 -17 -9 -15 -3 10 42 29 49
24 45 -30 -24 -25 -33 -40 -36 -40 -8 0 11 -5 17 -12 15 -8 -3 -13 4 -13 20 0
14 3 25 7 25 14 0 58 55 58 72 0 9 5 19 10 21 6 3 5 4 -2 3 -7 -1 -21 -19 -30
-38 -22 -45 -32 -52 -58 -38 -25 14 -25 67 0 62 8 -2 12 0 8 4 -4 4 -3 13 3
20 8 10 5 21 -13 43 -28 37 -41 39 -28 7 7 -20 6 -26 -8 -31 -9 -3 -30 -17
-47 -31 -42 -35 -1 -20 47 17 20 16 39 25 42 21 7 -12 -42 -62 -62 -62 -35 -1
-204 -66 -236 -92 -67 -54 -120 -182 -103 -250 6 -21 76 -78 96 -78 5 0 16 -9
26 -20 21 -24 9 -27 -16 -4 -16 15 -17 13 -8 -28 6 -23 19 -63 30 -87 11 -24
17 -53 13 -63 -3 -10 0 -25 6 -33 9 -11 9 -15 1 -15 -12 0 -18 11 -25 50 -12
66 -32 113 -49 116 -9 1 -15 -1 -12 -6 2 -4 -3 -15 -13 -23 -10 -9 -31 -44
-47 -77 -16 -33 -33 -60 -38 -60 -5 0 -3 10 5 23 8 12 20 39 27 59 7 20 23 53
36 73 14 19 20 35 14 35 -6 0 -46 -18 -90 -41 -67 -35 -137 -93 -150 -125 -2
-6 -36 -31 -75 -57 l-72 -47 -1 -105 -2 -105 1061 0 1060 0 31 28 c17 15 45
35 62 44 18 9 26 17 18 18 -11 0 -11 3 3 13 13 9 16 20 11 40 -8 32 -38 52
-80 53 -62 2 -71 5 -95 38 -16 21 -30 32 -40 28 -13 -5 -13 -4 0 14 8 10 33
40 56 65 23 25 47 56 54 70 12 22 10 22 -20 -6 l-33 -30 27 37 c16 21 32 35
37 32 5 -3 9 0 9 6 0 21 62 104 107 144 51 45 73 83 73 126 0 25 -10 42 -47
76 -48 46 -81 55 -103 29 -7 -8 -17 -15 -23 -15 -6 0 0 11 13 25 18 20 20 25
8 25 -9 0 -26 -12 -37 -27 l-21 -28 11 33 c14 42 32 49 75 28 45 -21 51 -20
29 4 -9 10 -60 33 -112 50 -97 31 -129 37 -103 20 13 -9 11 -13 -9 -29 -16
-12 -22 -24 -17 -36 5 -15 2 -16 -21 -10 -40 10 -48 29 -15 36 l27 7 -26 1
c-15 0 -29 8 -33 16 -4 12 0 14 22 9 21 -5 25 -4 15 6 -6 7 -9 18 -6 25 7 21
-36 6 -50 -16 -7 -11 -18 -19 -26 -19 -12 0 -12 3 1 18 30 35 33 45 7 32 -13
-7 -21 -9 -17 -5 4 4 -4 16 -17 27 -14 11 -25 28 -25 38 0 10 -9 20 -20 23
-12 3 -20 14 -20 25 0 12 -9 23 -20 27 -11 3 -20 12 -20 20 0 7 -7 16 -16 19
-25 9 -56 7 -49 -4 3 -5 17 -10 30 -10 18 0 23 -5 22 -20 -2 -23 -22 -27 -31
-5 -3 8 -10 15 -16 15 -6 0 -4 -7 4 -16 9 -8 21 -25 28 -37 10 -20 10 -21 -6
-8 -9 8 -19 11 -23 7 -3 -3 -15 1 -25 11 -10 9 -18 11 -18 6 0 -14 29 -37 36
-30 6 6 17 -3 43 -36 19 -23 11 -21 -29 8 -38 28 -55 32 -47 11 3 -7 1 -18 -5
-24 -7 -7 -4 -19 7 -38 l17 -29 -20 22 c-17 20 -21 21 -26 6 -4 -9 -9 -13 -13
-10 -3 4 -1 13 5 20 7 8 9 17 5 20 -3 4 -1 7 5 7 11 0 6 57 -9 95 -6 17 -8 15
-9 -10 0 -26 -2 -28 -11 -11 -8 13 -8 25 -1 41 7 16 7 26 -1 34 -18 18 -29 13
-21 -11 l7 -23 -24 20 c-13 11 -25 21 -27 21 -2 1 5 19 16 41 23 43 72 94 72
73 0 -9 6 -8 20 5 17 16 20 16 15 3 -5 -13 -1 -16 20 -14 42 5 53 23 22 37
-15 7 -27 16 -27 20 0 4 -10 5 -22 1 -12 -3 -19 -1 -15 5 3 5 -10 25 -30 44
-20 18 -34 29 -32 24z m76 -92 c-4 -3 -10 -3 -14 0 -3 4 0 7 7 7 7 0 10 -3 7
-7z m-122 -163 c3 -5 -1 -10 -10 -10 -9 0 -13 5 -10 10 3 6 8 10 10 10 2 0 7
-4 10 -10z m-275 -4 c0 -2 -7 -7 -16 -10 -8 -3 -12 -2 -9 4 6 10 25 14 25 6z
m221 -141 c10 -4 24 -3 31 1 8 5 9 2 5 -10 -6 -14 -3 -17 9 -12 8 3 20 6 25 6
4 0 5 8 2 17 -5 14 -3 13 13 -3 20 -19 19 -19 -28 -42 -53 -26 -197 -44 -184
-24 4 7 1 12 -8 12 -9 0 -16 -5 -16 -11 0 -11 -61 -8 -195 8 l-60 8 33 17 c17
9 32 12 32 7 0 -6 9 -8 19 -4 11 3 22 1 26 -5 4 -7 13 -6 28 2 44 25 92 37
101 28 6 -6 30 -10 53 -10 32 0 50 6 66 23 14 14 23 18 25 10 2 -7 12 -15 23
-18z m134 5 c3 -5 4 -10 1 -10 -3 0 -8 5 -11 10 -3 6 -4 10 -1 10 3 0 8 -4 11
-10z m-217 -100 c134 -1 202 -5 202 -12 0 -6 -8 -7 -17 -3 -13 4 -15 3 -7 -5
8 -8 19 -6 40 5 36 19 74 19 99 1 17 -12 18 -16 5 -32 -8 -10 -10 -15 -5 -12
6 4 17 3 25 -3 12 -7 9 -9 -10 -10 -23 -1 -23 -2 5 -9 l30 -8 -30 -1 c-16 -1
-37 -5 -45 -11 -12 -7 -10 -12 10 -30 l24 -21 -28 5 c-27 5 -28 4 -11 -14 17
-19 17 -19 -4 -15 -11 2 -26 7 -31 10 -6 3 -7 -1 -4 -9 3 -9 9 -14 14 -11 4 2
12 -7 19 -21 6 -14 16 -22 21 -19 6 3 7 -1 4 -9 -9 -22 -35 -20 -41 3 -7 29
-31 33 -53 11 -25 -25 -36 -25 -49 -3 -5 10 -13 14 -17 10 -4 -4 0 -15 9 -24
16 -16 19 -16 52 0 30 14 35 15 35 2 0 -8 -3 -14 -7 -13 -5 2 -19 -5 -33 -15
-13 -9 -20 -17 -14 -17 5 0 15 5 22 12 9 9 12 6 12 -14 0 -15 -5 -30 -11 -33
-15 -10 -81 4 -74 15 4 6 -2 7 -12 3 -13 -5 -7 -11 30 -26 43 -18 62 -37 36
-37 -5 0 -7 -4 -4 -10 4 -7 -3 -7 -20 0 -36 14 -42 12 -19 -5 18 -13 16 -14
-20 -15 l-39 0 27 -25 c28 -26 33 -42 13 -42 -7 0 -24 -3 -39 -6 -22 -6 -27
-3 -32 19 -4 13 -5 28 -2 32 2 4 1 23 -4 42 l-8 35 -1 -35 c-1 -19 -8 -48 -16
-65 -13 -30 -13 -29 -8 16 3 28 1 49 -5 53 -7 4 -3 15 11 29 l22 22 23 -25
c22 -24 22 -24 10 -2 -11 20 -11 25 4 36 10 7 15 16 11 19 -3 4 3 7 14 7 36 0
36 38 0 73 -29 28 -30 29 -5 14 33 -21 39 -21 32 -3 -5 12 0 13 31 3 32 -10
39 -9 50 6 20 28 7 60 -22 54 -13 -2 -26 0 -29 5 -3 4 -9 6 -14 3 -5 -3 -17 6
-28 20 -11 14 -22 21 -24 15 -1 -5 -25 -12 -53 -15 -31 -3 -55 -11 -62 -22 -7
-9 -13 -12 -13 -6 0 6 -9 13 -21 16 -16 4 -24 -1 -34 -26 l-14 -32 -1 30 c-1
29 -2 29 -15 -10 -11 -34 -13 -37 -16 -15 -1 14 -2 30 -2 36 0 6 -6 11 -13 11
-8 0 -14 -7 -14 -15 0 -9 -7 -13 -20 -9 -24 6 -25 3 -3 -23 17 -20 17 -20 30
3 7 12 12 17 13 11 0 -5 -6 -18 -13 -28 -12 -16 -17 -17 -38 -7 -23 11 -23 11
-5 -3 11 -9 29 -16 40 -16 17 0 16 -4 -14 -35 -18 -19 -37 -32 -42 -29 -4 3
-8 -1 -8 -8 0 -9 -3 -9 -10 2 -8 12 -10 12 -10 1 0 -14 -21 -34 -55 -52 -11
-6 -5 2 13 18 45 39 41 51 -5 14 -21 -16 -56 -36 -78 -45 -34 -13 -37 -14 -21
-1 11 8 23 15 28 15 4 0 8 5 8 11 0 6 -6 9 -12 7 -7 -3 -19 2 -27 10 -12 12
-11 17 11 35 18 15 28 35 31 63 l5 41 -28 -28 c-15 -16 -33 -29 -41 -28 -11 0
-11 2 -1 6 11 4 43 55 48 76 1 4 2 8 4 10 5 7 7 37 2 37 -3 0 -17 -10 -31 -22
l-25 -23 17 28 c10 15 15 32 12 37 -3 5 0 12 6 16 8 5 10 2 5 -7 -4 -8 -1 -6
6 5 43 62 43 62 104 59 33 -1 150 -2 262 -3z m567 -70 c3 -5 1 -10 -4 -10 -6
0 -11 5 -11 10 0 6 2 10 4 10 3 0 8 -4 11 -10z m-1502 -24 c6 -15 -11 -36 -29
-36 -13 0 -13 17 -1 38 11 16 24 15 30 -2z m1057 -34 c0 -15 -2 -15 -10 -2
-13 20 -13 33 0 25 6 -3 10 -14 10 -23z m745 18 c3 -5 -3 -10 -14 -10 -11 0
-23 -4 -26 -10 -3 -5 1 -10 9 -10 8 0 18 -4 21 -10 4 -6 -3 -6 -21 0 -22 9
-25 8 -20 -6 4 -11 2 -15 -8 -11 -7 3 -19 0 -26 -6 -6 -7 1 7 16 31 26 40 56
54 69 32z m-828 -27 c-4 -3 -7 0 -7 7 0 7 3 10 7 7 3 -4 3 -10 0 -14z m-637
-7 c0 -3 -4 -8 -10 -11 -5 -3 -10 -1 -10 4 0 6 5 11 10 11 6 0 10 -2 10 -4z
m-300 -34 c0 -15 -2 -15 -10 -2 -13 20 -13 33 0 25 6 -3 10 -14 10 -23z m1430
13 c-8 -9 -14 -72 -18 -180 l-5 -166 -51 -33 c-60 -39 -191 -143 -225 -180
-48 -52 -38 -24 25 69 35 52 82 133 103 178 22 46 62 118 89 160 27 41 52 90
56 108 6 30 22 59 33 59 3 0 0 -7 -7 -15z m-320 -11 c0 -9 -5 -14 -12 -12 -18
6 -21 28 -4 28 9 0 16 -7 16 -16z m-780 -41 c0 -12 5 -25 10 -28 6 -3 7 -18 4
-32 -6 -22 -4 -25 10 -20 9 4 16 1 16 -5 0 -6 18 -30 40 -54 22 -24 40 -48 40
-54 0 -5 7 -10 15 -10 8 0 15 -4 15 -10 0 -5 23 -24 50 -42 28 -18 50 -36 50
-41 0 -4 -4 -5 -10 -2 -5 3 -10 3 -10 -1 0 -10 41 -44 53 -44 5 0 4 -6 -2 -14
-10 -12 -6 -13 26 -6 27 7 51 5 81 -5 23 -8 76 -15 116 -15 40 0 91 -6 113
-14 26 -9 45 -11 56 -4 16 8 17 4 13 -46 -3 -31 -7 -59 -9 -63 -3 -5 -8 -26
-11 -47 -8 -49 -9 -49 -49 -51 -109 -4 -127 -6 -127 -16 0 -7 29 -8 93 -4 66
5 88 3 77 -4 -9 -6 -68 -11 -137 -11 l-122 0 -31 30 c-17 16 -35 30 -40 30 -6
0 -29 15 -53 33 -24 19 -80 53 -123 77 -75 40 -134 80 -121 80 4 0 37 -16 74
-36 41 -22 58 -27 43 -15 -14 12 -40 34 -58 49 -18 15 -30 33 -27 40 3 8 0 10
-7 6 -8 -5 -9 -2 -5 10 4 10 7 23 7 29 0 8 3 7 9 -2 7 -11 10 -11 17 0 12 19
11 42 -1 51 -6 5 -5 8 3 8 6 0 12 5 12 11 0 14 -42 1 -57 -19 -11 -14 -13 -13
-13 9 0 13 -5 31 -10 39 -8 13 -10 13 -10 0 0 -8 -3 -10 -9 -5 -5 6 -11 68
-14 140 -4 82 -3 124 3 115 5 -8 10 -25 10 -37z m905 37 c3 -5 1 -10 -4 -10
-6 0 -11 5 -11 10 0 6 2 10 4 10 3 0 8 -4 11 -10z m562 3 c-4 -3 -10 -3 -14 0
-3 4 0 7 7 7 7 0 10 -3 7 -7z m-153 -28 c-9 -14 -18 -25 -21 -25 -5 0 5 18 20
38 17 22 18 13 1 -13z m-1682 -64 c26 -17 54 -41 62 -54 9 -13 27 -29 41 -35
32 -15 32 -31 0 -24 -14 2 -25 8 -25 13 0 5 -9 9 -19 9 -11 0 -23 5 -26 10 -3
6 1 10 11 10 14 0 15 2 3 16 -21 26 -86 64 -108 64 -11 0 -25 -8 -30 -17 -9
-15 -10 -14 -11 10 0 23 4 27 28 27 15 0 49 -13 74 -29z m1222 3 c25 -10 20
-37 -5 -29 -16 6 -20 4 -14 -6 5 -8 -1 -5 -13 5 -12 11 -22 23 -22 28 0 9 31
11 54 2z m-437 -27 c-2 -6 -9 -13 -17 -15 -8 -3 -10 0 -5 8 5 8 4 11 -3 6 -6
-4 -9 -13 -5 -21 8 -22 -14 -44 -37 -38 -11 3 -20 0 -20 -6 0 -5 6 -8 14 -5 8
3 17 1 21 -5 7 -12 -14 -14 -41 -4 -14 5 -12 11 17 35 19 17 28 27 22 23 -22
-11 -14 12 10 28 23 15 50 12 44 -6z m29 -12 c-7 -19 -1 -19 27 0 26 17 104
13 99 -5 -1 -6 2 -9 7 -6 5 4 12 2 16 -4 3 -5 -5 -15 -18 -21 -13 -6 -32 -24
-41 -41 l-18 -30 32 17 c24 13 31 13 28 3 -2 -7 -14 -17 -26 -23 -12 -5 -22
-13 -22 -17 0 -5 -8 -8 -18 -8 -11 0 -27 -9 -37 -20 -10 -11 -23 -20 -28 -20
-6 0 -2 9 8 20 17 19 17 20 1 20 -10 0 -24 7 -32 15 -13 13 -12 15 10 21 13 3
26 13 29 23 3 13 -3 16 -30 16 -35 -2 -40 4 -21 23 9 9 9 12 0 12 -7 0 -5 7 5
20 20 24 38 26 29 5z m-807 -20 c12 -12 8 -12 -28 -3 -22 6 -41 15 -41 20 0
13 51 1 69 -17z m1666 -4 c-3 -6 -11 -11 -16 -11 -5 0 -4 6 3 14 14 16 24 13
13 -3z m-1012 -28 c-10 -3 -10 -10 -2 -26 9 -21 9 -21 -5 -4 -14 18 -15 18
-43 1 l-28 -18 20 23 c21 24 56 43 65 33 3 -2 -1 -7 -7 -9z m1037 -7 c0 -3 -5
-8 -12 -12 -7 -4 -8 -3 -4 4 7 12 16 16 16 8z m-79 -25 c-14 -26 -66 -68 -112
-91 -60 -31 -57 -23 7 19 32 21 70 50 83 65 29 31 36 33 22 7z m-863 -30 c-25
-23 -29 -30 -15 -31 12 0 17 -8 17 -26 l0 -26 -29 24 c-39 31 -35 54 13 78 22
11 42 18 44 15 2 -2 -11 -17 -30 -34z m-574 -12 c29 -26 33 -36 11 -36 -8 0
-12 4 -9 9 3 4 -4 8 -15 8 -15 0 -19 4 -14 17 4 10 2 14 -4 10 -6 -4 -22 2
-34 13 l-24 19 31 -8 c17 -5 43 -19 58 -32z m46 -43 c0 -3 -5 -8 -12 -12 -7
-4 -8 -3 -4 4 7 12 16 16 16 8z m-106 -22 c5 -14 4 -15 -9 -4 -17 14 -19 20
-6 20 5 0 12 -7 15 -16z m313 9 c-4 -3 -10 -3 -14 0 -3 4 0 7 7 7 7 0 10 -3 7
-7z m-156 -29 c14 -15 18 -24 10 -22 -20 4 -49 31 -44 41 6 10 7 10 34 -19z
m136 -1 c-4 -3 -7 0 -7 7 0 7 3 10 7 7 3 -4 3 -10 0 -14z m264 -33 c31 -25 18
-25 -23 0 -20 12 -26 20 -17 20 9 0 27 -9 40 -20z m-770 -33 c-10 -9 -11 -8
-5 6 3 10 9 15 12 12 3 -3 0 -11 -7 -18z m1176 -4 c-4 -3 -10 -3 -14 0 -3 4 0
7 7 7 7 0 10 -3 7 -7z m-32 -13 c-3 -5 -17 -10 -30 -10 -13 0 -27 5 -30 10 -4
6 8 10 30 10 22 0 34 -4 30 -10z m-1435 -84 c0 -3 -5 -8 -12 -12 -7 -4 -8 -3
-4 4 7 12 16 16 16 8z m-43 -33 c-4 -3 -10 -3 -14 0 -3 4 0 7 7 7 7 0 10 -3 7
-7z"/>
<path d="M1233 973 c-20 -7 -15 -23 7 -23 11 0 20 4 20 9 0 13 -12 19 -27 14z"/>
<path d="M1313 973 c4 -3 10 -3 14 0 3 4 0 7 -7 7 -7 0 -10 -3 -7 -7z"/>
<path d="M1512 874 c-14 -16 -5 -18 17 -5 7 5 9 11 5 14 -5 3 -15 -1 -22 -9z"/>
<path d="M1385 860 c3 -5 8 -10 11 -10 2 0 4 5 4 10 0 6 -5 10 -11 10 -5 0 -7
-4 -4 -10z"/>
<path d="M1126 795 c-3 -9 -6 -22 -5 -28 0 -7 5 -1 10 12 5 13 8 26 5 28 -2 2
-6 -3 -10 -12z"/>
<path d="M1075 729 c-9 -28 -2 -33 13 -9 6 11 8 21 3 25 -5 3 -13 -4 -16 -16z"/>
<path d="M1104 708 c-4 -7 -3 -8 4 -4 12 7 16 16 8 16 -3 0 -8 -5 -12 -12z"/>
<path d="M1174 698 c-4 -7 -3 -8 4 -4 12 7 16 16 8 16 -3 0 -8 -5 -12 -12z"/>
<path d="M1084 668 c-4 -7 -3 -8 4 -4 12 7 16 16 8 16 -3 0 -8 -5 -12 -12z"/>
<path d="M1046 631 c-17 -6 -17 -8 -3 -14 8 -3 21 1 27 9 13 15 6 17 -24 5z"/>
<path d="M1469 515 c-8 -30 3 -45 33 -45 10 0 15 5 12 13 -5 13 -43 41 -45 32z"/>
<path d="M1853 561 c-10 -16 -9 -20 4 -25 9 -4 18 -4 21 -1 3 3 0 5 -7 5 -8 0
-10 7 -6 20 8 25 3 26 -12 1z"/>
<path d="M1843 493 c4 -3 10 -3 14 0 3 4 0 7 -7 7 -7 0 -10 -3 -7 -7z"/>
<path d="M1843 468 c-13 -6 -23 -15 -23 -20 0 -5 11 -1 25 8 37 24 35 30 -2
12z"/>
<path d="M1870 430 c0 -7 3 -10 7 -7 3 4 3 10 0 14 -4 3 -7 0 -7 -7z"/>
<path d="M840 587 c0 -2 6 -10 14 -16 11 -9 16 -9 22 1 4 7 4 10 -1 6 -4 -4
-14 -3 -22 3 -7 6 -13 9 -13 6z"/>
<path d="M890 540 c0 -7 3 -10 7 -7 3 4 3 10 0 14 -4 3 -7 0 -7 -7z"/>
<path d="M888 502 c-10 -2 -18 -12 -18 -22 0 -23 25 -17 34 7 8 19 6 20 -16
15z"/>
<path d="M978 433 c7 -3 16 -2 19 1 4 3 -2 6 -13 5 -11 0 -14 -3 -6 -6z"/>
<path d="M1234 288 c-4 -7 -3 -8 4 -4 7 4 12 9 12 12 0 8 -9 4 -16 -8z"/>
<path d="M1385 270 c3 -5 8 -10 11 -10 3 0 2 5 -1 10 -3 6 -8 10 -11 10 -3 0
-2 -4 1 -10z"/>
<path d="M1126 255 c-3 -8 -1 -15 4 -15 6 0 10 7 10 15 0 8 -2 15 -4 15 -2 0
-6 -7 -10 -15z"/>
<path d="M1193 206 c-43 -16 -52 -26 -22 -26 13 0 38 9 54 20 33 22 18 24 -32
6z"/>
<path d="M1320 190 c0 -5 5 -10 10 -10 6 0 10 5 10 10 0 6 -4 10 -10 10 -5 0
-10 -4 -10 -10z"/>
<path d="M1220 163 c0 -12 -3 -14 -8 -7 -6 10 -52 2 -52 -9 0 -11 86 4 99 18
14 13 13 15 -12 15 -19 0 -27 -5 -27 -17z"/>
<path d="M1250 90 c0 -7 3 -10 7 -7 3 4 3 10 0 14 -4 3 -7 0 -7 -7z"/>
<path d="M1315 600 c-19 -8 -19 -9 3 -9 12 -1 22 4 22 9 0 6 -1 10 -2 9 -2 0
-12 -4 -23 -9z"/>
<path d="M1360 590 c0 -5 5 -10 11 -10 5 0 7 5 4 10 -3 6 -8 10 -11 10 -2 0
-4 -4 -4 -10z"/>
<path d="M1269 573 c-13 -16 -12 -17 4 -4 16 13 21 21 13 21 -2 0 -10 -8 -17
-17z"/>
<path d="M1161 1392 c-6 -11 -18 -28 -27 -36 -10 -11 -13 -24 -8 -38 6 -20 10
-16 31 31 22 52 26 83 4 43z"/>
<path d="M1100 1320 c0 -7 3 -10 7 -7 3 4 3 10 0 14 -4 3 -7 0 -7 -7z"/>
<path d="M1390 1260 c-9 -6 -10 -10 -3 -10 6 0 15 5 18 10 8 12 4 12 -15 0z"/>
<path d="M1650 1257 c0 -11 39 -87 45 -87 7 0 -13 49 -30 73 -8 12 -15 18 -15
14z"/>
<path d="M1360 1240 c0 -7 3 -10 7 -7 3 4 3 10 0 14 -4 3 -7 0 -7 -7z"/>
<path d="M690 1160 c0 -7 3 -10 7 -7 3 4 3 10 0 14 -4 3 -7 0 -7 -7z"/>
<path d="M1860 1155 c0 -8 4 -15 10 -15 5 0 7 7 4 15 -4 8 -8 15 -10 15 -2 0
-4 -7 -4 -15z"/>
<path d="M1150 1150 c0 -7 3 -10 7 -7 3 4 3 10 0 14 -4 3 -7 0 -7 -7z"/>
<path d="M1832 1134 c-7 -8 -8 -14 -3 -14 10 0 25 19 20 25 -2 1 -10 -3 -17
-11z"/>
<path d="M1055 1080 c-10 -11 -14 -20 -9 -20 5 0 15 9 22 20 7 11 11 20 9 20
-2 0 -12 -9 -22 -20z"/>
<path d="M2015 1070 c-3 -5 3 -10 15 -10 12 0 18 5 15 10 -3 6 -10 10 -15 10
-5 0 -12 -4 -15 -10z"/>
<path d="M924 1058 c-4 -7 -3 -8 4 -4 12 7 16 16 8 16 -3 0 -8 -5 -12 -12z"/>
<path d="M2019 1023 c-13 -16 -12 -17 4 -4 16 13 21 21 13 21 -2 0 -10 -8 -17
-17z"/>
<path d="M1964 1003 c9 -10 23 -26 29 -36 12 -17 13 -17 13 6 0 14 -3 24 -7
21 -4 -2 -12 3 -19 11 -7 8 -17 15 -23 15 -6 0 -3 -8 7 -17z"/>
<path d="M756 955 c-11 -8 -15 -15 -9 -15 6 0 16 7 23 15 16 19 11 19 -14 0z"/>
<path d="M822 933 c-33 -47 -42 -71 -36 -88 6 -14 10 -12 30 12 13 15 23 34
24 42 0 11 -4 9 -15 -5 -22 -29 -18 -6 6 32 25 41 18 45 -9 7z"/>
<path d="M329 553 c-19 -24 -53 -74 -63 -93 -12 -23 51 52 69 83 18 31 15 36
-6 10z"/>
<path d="M339 527 c-9 -12 -24 -35 -34 -50 l-18 -28 48 25 c26 15 54 26 61 26
19 0 18 15 -2 34 -21 22 -36 20 -55 -7z m51 -11 c0 -3 -4 -8 -10 -11 -5 -3
-10 -1 -10 4 0 6 5 11 10 11 6 0 10 -2 10 -4z"/>
<path d="M2228 420 c34 -33 46 -39 57 -30 10 9 16 7 24 -7 8 -14 10 -15 11 -3
0 13 2 13 9 0 6 -8 7 -18 4 -23 -4 -6 10 -7 33 -4 l39 6 -43 -14 c-47 -15 -62
-13 -107 20 -53 38 -58 40 -43 16 7 -12 15 -21 18 -21 4 0 15 -7 26 -16 10 -8
13 -12 5 -8 -11 6 -13 3 -7 -12 7 -18 6 -18 -12 1 -11 11 -31 30 -46 42 l-26
23 0 -28 c0 -15 -5 -34 -10 -42 -8 -12 -10 -10 -10 8 0 16 -4 21 -12 15 -7 -4
-19 -8 -26 -9 -19 -3 -52 -35 -52 -49 0 -20 25 -36 79 -50 27 -7 65 -25 84
-39 18 -14 38 -23 43 -18 5 4 6 3 3 -1 -4 -5 8 -36 25 -70 18 -34 35 -72 38
-85 6 -22 7 -22 187 -22 164 1 205 7 169 24 -7 3 -1 4 15 1 20 -4 27 -1 27 10
0 8 5 15 11 15 6 0 4 7 -5 15 -8 8 -27 15 -42 15 -19 0 -25 3 -18 10 6 6 22 6
44 0 32 -9 33 -8 16 5 -11 8 -25 15 -31 15 -7 0 -12 7 -12 15 0 8 9 15 20 15
20 0 57 35 57 54 0 7 -3 7 -8 1 -9 -13 -72 -35 -99 -35 -11 0 -36 -6 -54 -14
-27 -11 -30 -15 -13 -19 14 -3 12 -5 -8 -6 -16 0 -28 -6 -28 -12 0 -5 -4 -8
-9 -5 -5 4 -14 -6 -19 -21 -7 -18 -11 -22 -11 -10 -1 17 -21 25 -21 7 0 -5 -7
-7 -16 -3 -14 5 -12 8 7 19 22 11 22 13 6 19 -12 5 -15 11 -7 20 16 20 -1 25
-31 10 -33 -18 -43 -19 -34 -5 3 6 1 10 -4 10 -8 0 -7 7 1 19 7 11 16 17 20
15 5 -3 6 -10 3 -15 -4 -5 -1 -9 5 -9 7 0 10 6 7 14 -3 7 -1 18 5 24 6 6 0 8
-19 4 -15 -3 -32 -11 -36 -18 -11 -20 -26 -17 -22 4 2 9 4 20 4 25 1 4 11 7
24 8 l22 0 -23 9 c-19 8 -21 13 -12 30 9 16 8 20 -5 20 -8 0 -15 -7 -15 -15 0
-8 -9 -15 -21 -15 -11 0 -18 -4 -14 -10 3 -5 12 -7 19 -4 8 3 17 0 22 -7 5 -9
2 -10 -9 -6 -9 3 -18 1 -21 -6 -3 -8 -10 -6 -20 7 -14 17 -13 22 5 48 11 15
24 26 28 24 4 -3 19 1 33 8 16 9 31 10 42 4 10 -6 16 -5 16 1 0 17 -38 23 -77
12 -59 -17 -84 -11 -29 6 47 14 69 14 126 -2 20 -5 22 -5 10 5 -18 14 6 10 90
-16 30 -9 78 -20 105 -24 86 -14 130 -35 128 -59 -2 -13 3 -21 13 -21 11 0 13
6 9 20 -5 15 -3 18 9 14 9 -3 13 -11 10 -16 -4 -6 1 -6 13 0 10 6 25 7 32 3 7
-5 34 -9 60 -9 42 0 38 2 -44 23 -49 13 -119 33 -153 44 -35 12 -74 21 -86 21
-12 0 -60 11 -106 25 -46 14 -94 25 -108 25 -13 0 -36 8 -50 18 -22 15 -136
58 -212 80 -8 2 4 -15 28 -38z m49 -27 c-4 -3 -7 0 -7 7 0 7 3 10 7 7 3 -4 3
-10 0 -14z m20 -70 c-4 -3 -10 -3 -14 0 -3 4 0 7 7 7 7 0 10 -3 7 -7z m350
-189 c-3 -3 -12 -4 -19 -1 -8 3 -5 6 6 6 11 1 17 -2 13 -5z m-60 -41 c-4 -3
-7 0 -7 7 0 7 3 10 7 7 3 -4 3 -10 0 -14z m20 0 c-4 -3 -7 0 -7 7 0 7 3 10 7
7 3 -4 3 -10 0 -14z m113 -45 c0 -6 -6 -5 -15 2 -8 7 -15 14 -15 16 0 2 7 1
15 -2 8 -4 15 -11 15 -16z"/>
<path d="M182 413 c-24 -15 -38 -29 -32 -31 5 -2 29 10 52 27 52 38 37 41 -20
4z"/>
<path d="M2140 370 c0 -7 3 -10 7 -7 3 4 3 10 0 14 -4 3 -7 0 -7 -7z"/>
<path d="M130 363 c-14 -3 -47 -11 -75 -18 -46 -11 -50 -15 -53 -44 -3 -26 0
-31 18 -31 35 0 83 26 119 64 19 20 31 35 25 35 -5 -1 -20 -4 -34 -6z"/>
<path d="M2420 300 c0 -5 5 -10 11 -10 5 0 7 5 4 10 -3 6 -8 10 -11 10 -2 0
-4 -4 -4 -10z"/>
<path d="M2478 299 c7 -7 41 -15 80 -17 37 -2 64 -1 59 4 -4 4 -31 8 -60 9
-28 1 -61 5 -72 10 -16 6 -18 6 -7 -6z"/>
<path d="M2624 261 c4 -5 0 -12 -6 -14 -8 -3 -6 -6 5 -6 9 -1 17 6 17 14 0 8
-5 15 -11 15 -5 0 -8 -4 -5 -9z"/>
<path d="M2700 250 c0 -7 3 -10 7 -7 3 4 3 10 0 14 -4 3 -7 0 -7 -7z"/>
<path d="M2723 243 c4 -3 10 -3 14 0 3 4 0 7 -7 7 -7 0 -10 -3 -7 -7z"/>
<path d="M2543 223 c4 -3 10 -3 14 0 3 4 0 7 -7 7 -7 0 -10 -3 -7 -7z"/>
<path d="M2140 209 c0 -5 5 -7 10 -4 6 3 10 8 10 11 0 2 -4 4 -10 4 -5 0 -10
-5 -10 -11z"/>
<path d="M2715 210 c6 -10 1 -12 -18 -8 -17 3 -24 1 -20 -5 4 -6 0 -8 -10 -4
-10 4 -17 2 -17 -5 0 -7 12 -8 32 -4 39 8 54 21 37 31 -8 6 -10 4 -4 -5z"/>
<path d="M2602 174 c-26 -27 -24 -29 13 -12 14 6 25 17 25 25 0 19 -12 15 -38
-13z"/>
<path d="M2820 190 c0 -7 3 -10 7 -7 3 4 3 10 0 14 -4 3 -7 0 -7 -7z"/>
<path d="M2980 170 c0 -7 3 -10 7 -7 3 4 3 10 0 14 -4 3 -7 0 -7 -7z"/>
<path d="M2746 132 c-6 -10 19 -50 27 -42 2 3 -2 16 -9 28 -6 13 -14 20 -18
14z"/>
<path d="M2780 125 c0 -8 2 -15 4 -15 2 0 6 7 10 15 3 8 1 15 -4 15 -6 0 -10
-7 -10 -15z"/>
<path d="M2928 103 c7 -3 16 -2 19 1 4 3 -2 6 -13 5 -11 0 -14 -3 -6 -6z"/>
<path d="M2963 70 c-3 -11 -9 -17 -14 -14 -5 3 -9 -1 -9 -10 0 -30 13 -46 36
-46 22 0 24 4 24 45 0 35 -4 45 -16 45 -9 0 -18 -9 -21 -20z"/>
<path d="M2244 68 c-4 -7 -3 -8 4 -4 7 4 12 9 12 12 0 8 -9 4 -16 -8z"/>
<path d="M2880 70 c-8 -5 -12 -11 -9 -14 3 -3 14 1 25 9 21 16 8 20 -16 5z"/>
<path d="M2830 56 c0 -2 7 -6 15 -10 8 -3 15 -1 15 4 0 6 -7 10 -15 10 -8 0
-15 -2 -15 -4z"/>
<path d="M2196 33 c5 -19 35 -43 33 -25 -3 21 3 31 24 35 l22 4 -23 2 c-12 0
-25 -6 -28 -14 -6 -14 -8 -13 -20 2 -12 17 -13 16 -8 -4z"/>
<path d="M2886 41 c-3 -4 6 -8 20 -9 13 -1 24 0 24 2 0 7 -40 14 -44 7z"/>
<path d="M2160 21 c0 -5 5 -13 10 -16 6 -3 10 -2 10 4 0 5 -4 13 -10 16 -5 3
-10 2 -10 -4z"/>
<path d="M2275 20 c-16 -7 -17 -9 -3 -9 9 -1 20 4 23 9 7 11 7 11 -20 0z"/>
<path d="M2760 16 c0 -9 5 -16 10 -16 6 0 10 4 10 9 0 6 -4 13 -10 16 -5 3
-10 -1 -10 -9z"/>
<path d="M2733 3 c4 -3 10 -3 14 0 3 4 0 7 -7 7 -7 0 -10 -3 -7 -7z"/>
<path d="M2823 3 c4 -3 10 -3 14 0 3 4 0 7 -7 7 -7 0 -10 -3 -7 -7z"/>
<path d="M2868 3 c12 -2 32 -2 45 0 12 2 2 4 -23 4 -25 0 -35 -2 -22 -4z"/>
</g>
</svg>
